<?xml version="1.0" encoding="UTF-8"?>
<svg width="709px" height="207px" viewBox="0 0 709 207" version="1.1" xmlns="http://www.w3.org/2000/svg" xmlns:xlink="http://www.w3.org/1999/xlink">
    <!-- Generator: Sketch 48.2 (47327) - http://www.bohemiancoding.com/sketch -->
    <title>Oval</title>
    <desc>Created with Sketch.</desc>
    <defs>
        <path d="M77.184,206.208 C61.8239232,206.208 48.3360581,203.136031 36.72,196.992 C25.1039419,190.847969 16.0800322,182.208056 9.648,171.072 C3.21596784,159.935944 0,147.072073 0,132.48 L0,73.44 C0,58.847927 3.21596784,46.0320552 9.648,34.992 C16.0800322,23.9519448 25.1039419,15.3600307 36.72,9.216 C48.3360581,3.07196928 61.8239232,0 77.184,0 C92.3520758,0 105.791941,2.92797072 117.504,8.784 C129.216059,14.6400293 138.287968,22.6559491 144.72,32.832 C151.152032,43.0080509 154.368,54.2399386 154.368,66.528 C154.368,69.7920163 152.640017,71.424 149.184,71.424 L111.744,71.424 C108.287983,71.424 106.56,70.8480058 106.56,69.696 L106.56,67.968 C106.56,60.4799626 103.920026,54.0960264 98.64,48.816 C93.3599736,43.5359736 86.2080451,40.896 77.184,40.896 C68.3519558,40.896 61.2480269,43.7759712 55.872,49.536 C50.4959731,55.2960288 47.808,62.7839539 47.808,72 L47.808,133.92 C47.808,143.136046 50.7839702,150.623971 56.736,156.384 C62.6880298,162.144029 70.1759549,165.024 79.2,165.024 C87.6480422,165.024 94.4639741,162.768023 99.648,158.256 C104.832026,153.743977 107.424,147.45604 107.424,139.392 L107.424,131.904 C107.424,130.559993 106.752007,129.888 105.408,129.888 L78.912,129.888 C77.3759923,129.888 76.1280048,129.408005 75.168,128.448 C74.2079952,127.487995 73.728,126.240008 73.728,124.704 L73.728,96.48 C73.728,94.9439923 74.2079952,93.6960048 75.168,92.736 C76.1280048,91.7759952 77.3759923,91.296 78.912,91.296 L149.184,91.296 C150.720008,91.296 151.967995,91.7759952 152.928,92.736 C153.888005,93.6960048 154.368,94.9439923 154.368,96.48 L154.368,133.92 C154.368,148.320072 151.152032,160.991945 144.72,171.936 C138.287968,182.880055 129.264058,191.32797 117.648,197.28 C106.031942,203.23203 92.5440768,206.208 77.184,206.208 Z M305.28,203.904 C302.207985,203.904 300.288004,202.464014 299.52,199.584 L292.896,175.968 C292.703999,174.815994 291.936007,174.24 290.592,174.24 L225.504,174.24 C224.351994,174.24 223.584002,174.815994 223.2,175.968 L216.576,199.584 C215.807996,202.464014 213.888015,203.904 210.816,203.904 L170.208,203.904 C168.28799,203.904 166.944004,203.376005 166.176,202.32 C165.407996,201.263995 165.311997,199.872009 165.888,198.144 L226.368,6.624 C227.328005,3.7439856 229.343985,2.304 232.416,2.304 L283.392,2.304 C286.656016,2.304 288.671996,3.7439856 289.44,6.624 L350.208,198.144 C350.400001,198.528002 350.496,199.199995 350.496,200.16 C350.496,202.656012 348.960015,203.904 345.888,203.904 L305.28,203.904 Z M235.008,135.648 C235.008,136.800006 235.583994,137.376 236.736,137.376 L279.36,137.376 C280.128004,137.376 280.655999,137.136002 280.944,136.656 C281.232001,136.175998 281.280001,135.648003 281.088,135.072 L259.2,58.464 C259.007999,57.5039952 258.672002,57.024 258.192,57.024 C257.711998,57.024 257.280002,57.5039952 256.896,58.464 L235.008,135.072 L235.008,135.648 Z M377.568,203.904 C376.031992,203.904 374.784005,203.424005 373.824,202.464 C372.863995,201.503995 372.384,200.256008 372.384,198.72 L372.384,7.488 C372.384,5.95199232 372.863995,4.7040048 373.824,3.744 C374.784005,2.7839952 376.031992,2.304 377.568,2.304 L412.992,2.304 C415.680013,2.304 417.695993,3.45598848 419.04,5.76 L482.4,112.896 C482.784002,113.664004 483.263997,113.952001 483.84,113.76 C484.416003,113.567999 484.704,112.992005 484.704,112.032 L484.416,7.488 C484.416,5.95199232 484.895995,4.7040048 485.856,3.744 C486.816005,2.7839952 488.063992,2.304 489.6,2.304 L526.464,2.304 C528.000008,2.304 529.247995,2.7839952 530.208,3.744 C531.168005,4.7040048 531.648,5.95199232 531.648,7.488 L531.648,198.72 C531.648,200.256008 531.168005,201.503995 530.208,202.464 C529.247995,203.424005 528.000008,203.904 526.464,203.904 L491.04,203.904 C488.543988,203.904 486.528008,202.752012 484.992,200.448 L421.632,91.872 C421.247998,90.9119952 420.720003,90.527999 420.048,90.72 C419.375997,90.912001 419.04,91.4879952 419.04,92.448 L419.616,198.72 C419.616,200.256008 419.136005,201.503995 418.176,202.464 C417.215995,203.424005 415.968008,203.904 414.432,203.904 L377.568,203.904 Z M632.16,206.208 C616.799923,206.208 603.312058,203.664025 591.696,198.576 C580.079942,193.487975 571.104032,186.192048 564.768,176.688 C558.431968,167.183952 555.264,156.192062 555.264,143.712 L555.264,139.968 C555.264,138.431992 555.743995,137.184005 556.704,136.224 C557.664005,135.263995 558.911992,134.784 560.448,134.784 L597.024,134.784 C598.560008,134.784 599.807995,135.119997 600.768,135.792 C601.728005,136.464003 602.208,137.279995 602.208,138.24 L602.208,141.696 C602.208,147.840031 605.327969,153.311976 611.568,158.112 C617.808031,162.912024 625.823951,165.312 635.616,165.312 C644.064042,165.312 650.30398,163.488018 654.336,159.84 C658.36802,156.191982 660.384,151.968024 660.384,147.168 C660.384,141.791973 658.032024,137.664014 653.328,134.784 C648.623976,131.903986 640.22406,128.544019 628.128,124.704 L621.792,122.688 C609.503939,118.65598 598.752046,114.288024 589.536,109.584 C580.319954,104.879976 572.448033,98.3520418 565.92,90 C559.391967,81.6479582 556.128,71.3280614 556.128,59.04 C556.128,47.1359405 559.247969,36.7200446 565.488,27.792 C571.728031,18.8639554 580.367945,12.000024 591.408,7.2 C602.448055,2.399976 614.97593,0 628.992,0 C643.776074,0 657.071941,2.68797312 668.88,8.064 C680.688059,13.4400269 689.951966,21.023951 696.672,30.816 C703.392034,40.608049 706.752,51.8399366 706.752,64.512 L706.752,66.816 C706.752,68.3520077 706.272005,69.5999952 705.312,70.56 C704.351995,71.5200048 703.104008,72 701.568,72 L664.992,72 C663.455992,72 662.208005,71.7600024 661.248,71.28 C660.287995,70.7999976 659.808,70.0800048 659.808,69.12 L659.808,66.528 C659.808,59.8079664 656.83203,53.8560259 650.88,48.672 C644.92797,43.4879741 636.96005,40.896 626.976,40.896 C619.487963,40.896 613.632021,42.4319846 609.408,45.504 C605.183979,48.5760154 603.072,52.8959722 603.072,58.464 C603.072,62.6880211 604.415987,66.1919861 607.104,68.976 C609.792013,71.7600139 613.967972,74.351988 619.632,76.752 C625.296028,79.152012 633.983941,82.2719808 645.696,86.112 C659.136067,90.720023 669.599963,94.7519827 677.088,98.208 C684.576037,101.664017 691.631967,107.279961 698.256,115.056 C704.880033,122.832039 708.192,133.055937 708.192,145.728 C708.192,157.82406 705.024032,168.431954 698.688,177.552 C692.351968,186.672046 683.424058,193.727975 671.904,198.72 C660.383942,203.712025 647.136075,206.208 632.16,206.208 Z" id="path-1"></path>
    </defs>
    <g id="Artboard-Copy" stroke="none" stroke-width="1" fill="none" fill-rule="evenodd" transform="translate(-131.000000, -159.000000)">
        <g id="Oval" transform="translate(131.000000, 159.000000)">
            <mask id="mask-2" fill="white">
                <use xlink:href="#path-1"></use>
            </mask>
            <use id="Mask" fill="#1E232F" xlink:href="#path-1"></use>
        </g>
    </g>
</svg>